# xmcd
#
# Track frame offsets:
#	150
#	11725
#	23856
#	35674
#	48276
#	59490
#	72112
#	83698
#	98222
#	109558
#	120565
#	132110
#	144183
#	156870
#	169083
#	180691
#	195094
#	207810
#	218410
#	229104
#	243729
#	253227
#	263237
#	275024
#	285500
#	296955
#	316182
#	329241
#	336777
#	348931
#
# Disc length: 4790 seconds
#
# Revision: 0
# Processed by: cddbd v1.5.2PL0 Copyright (c) Steve Scherf et al.
# Submitted via: EasyCDDAExtractor 12.0.1.1
#
DISCID=bd12b41e
DTITLE=Bill Anderson - The First 10 Years 1956 - 1966
DYEAR=2011
DGENRE=Country
TTITLE0=3 A.M. (Remake)
TTITLE1=Twist Of The Wrist
TTITLE2=Certain
TTITLE3=I Love You Drops
TTITLE4=Once A Day
TTITLE5=I Missed Me
TTITLE6=I've Enjoyed As Much Of This As I Can Stand
TTITLE7=Saginaw Michigan
TTITLE8=I Don't Love You Anymore
TTITLE9=Riverboat
TTITLE10=I Know You Are Married (& Jan Howard)
TTITLE11=Time Out (& Jan Howard)
TTITLE12=I'll Be Waiting (& Jan Howard)
TTITLE13=Bright Lights And Country Music
TTITLE14=Born
TTITLE15=The Freighter
TTITLE16=Wild Side Of Life
TTITLE17=Truck Drivin' Man
TTITLE18=I'll Go Down Swinging
TTITLE19=The Strangers Story
TTITLE20=Walking The Dog
TTITLE21=How The Other Half Lives
TTITLE22=Wine
TTITLE23=All Nite Cafe
TTITLE24=Coktails
TTITLE25=Golden Guitar
TTITLE26=Think I'll Go Somewhere (And Cry Myself To Sleep)
TTITLE27=In The Summertime
TTITLE28=Used To
TTITLE29=I'm So Lonesome I Could Cry
EXTD=
EXTT0=
EXTT1=
EXTT2=
EXTT3=
EXTT4=
EXTT5=
EXTT6=
EXTT7=
EXTT8=
EXTT9=
EXTT10=
EXTT11=
EXTT12=
EXTT13=
EXTT14=
EXTT15=
EXTT16=
EXTT17=
EXTT18=
EXTT19=
EXTT20=
EXTT21=
EXTT22=
EXTT23=
EXTT24=
EXTT25=
EXTT26=
EXTT27=
EXTT28=
EXTT29=
PLAYORDER=
